<?xml version="1.0" encoding="UTF-8" standalone="no"?>
<!-- Uploaded to: SVG Repo, www.svgrepo.com, Generator: SVG Repo Mixer Tools -->

<svg
   fill="#000000"
   height="958.52234"
   width="775.84875"
   version="1.1"
   id="Layer_1"
   viewBox="0 0 266.02981 328.66653"
   xml:space="preserve"
   sodipodi:docname="lq.svg"
   inkscape:version="1.4.3 (0d15f75, 2025-12-25)"
   xmlns:inkscape="http://www.inkscape.org/namespaces/inkscape"
   xmlns:sodipodi="http://sodipodi.sourceforge.net/DTD/sodipodi-0.dtd"
   xmlns="http://www.w3.org/2000/svg"
   xmlns:svg="http://www.w3.org/2000/svg"><defs
   id="defs9" /><sodipodi:namedview
   id="namedview9"
   pagecolor="#ffffff"
   bordercolor="#000000"
   borderopacity="0.25"
   inkscape:showpageshadow="2"
   inkscape:pageopacity="0.0"
   inkscape:pagecheckerboard="0"
   inkscape:deskcolor="#d1d1d1"
   inkscape:zoom="0.77781745"
   inkscape:cx="482.76109"
   inkscape:cy="505.90277"
   inkscape:window-width="1720"
   inkscape:window-height="1382"
   inkscape:window-x="1720"
   inkscape:window-y="30"
   inkscape:window-maximized="0"
   inkscape:current-layer="g7" />
<g
   id="g9"
   transform="translate(-4.141,-1.7258904e-4)">
	<g
   id="g8">
		<g
   id="g7">
			<path
   d="m 217.601,133.999 11.512,6.272 c 0.084,0.048 0.176,0.072 0.268,0.072 0.2,0 0.396,-0.104 0.496,-0.296 0.152,-0.272 0.052,-0.616 -0.228,-0.764 l -11.512,-6.276 c -0.272,-0.152 -0.62,-0.056 -0.764,0.228 -0.152,0.272 -0.052,0.616 0.228,0.764 z"
   id="path1" />
			<path
   d="m 270.021,168.603 c -0.584,-2.456 -2.484,-3.42 -5.54,-2.972 l -11.636,-7.7 c 0.016,-0.12 0.1,-0.228 0.08,-0.348 -0.336,-1.828 -48.752,-59.7 -62.112,-75.284 -0.94,-1.096 -2.172,-2.628 -3.444,-4.208 -4.412,-5.472 -5.828,-7.108 -6.712,-7.42 -0.144,-0.052 -0.28,0.028 -0.428,0.036 L 168.825,54.987 V 19.451 c 0.912,0.456 1.976,0.852 3.172,1.176 l 1.636,0.332 c 0.568,0.092 1.176,0.144 1.852,0.156 0.2,0.008 0.4,0.012 0.596,0.012 2.28,0 4.66,-0.512 6.92,-1.496 1.916,-0.888 3.84,-2.204 5.728,-3.916 l 1.084,-0.976 c 1.12,-1.016 2.18,-1.976 3.224,-2.752 1.328,-1 2.7,-1.816 4.068,-2.42 1.128,-0.468 2.372,-0.904 3.792,-0.904 2.408,0.008 5.42,0.916 8.068,2.432 2.424,1.376 3.98,3.02 4.852,4.148 0.432,0.576 0.72,1.068 0.936,1.472 l 0.296,0.652 c 0.256,0.596 0.948,0.876 1.552,0.616 0.456,-0.208 0.744,-0.68 0.704,-1.18 l -0.068,-0.768 c -0.084,-0.564 -0.22,-1.328 -0.52,-2.256 -0.648,-2.14 -2.24,-4.656 -4.368,-6.916 -2.192,-2.248 -5.328,-5.004 -10.192,-6.32 -2.36,-0.648 -5.16,-0.724 -7.672,-0.184 -2.248,0.448 -4.548,1.22 -6.836,2.284 -0.824,0.38 -1.624,0.76 -2.396,1.128 -1.16,0.556 -2.252,1.08 -3.268,1.512 l -4.5,1.796 c -1.124,0.488 -2.152,0.9 -3.088,1.248 l -0.996,0.316 0.004,0.012 c -0.02,0.004 -0.036,0.008 -0.056,0.016 l -0.468,0.056 -0.144,0.036 c -0.4,0.156 -0.808,0.248 -1.252,0.26 -0.784,0.064 -1.76,0.108 -2.656,0.06 V 0.871 h -8.924 v 32.64 l -8.644,-6.668 c -3.948,-3.052 -7.9,-6.104 -11.856,-9.144 -1.336,-1.024 -3.088,-2.096 -4.728,-1.468 -1.68,0.656 -2.248,2.724 -2.556,4.448 -0.936,5.252 -1.82,10.52 -2.704,15.784 -1.404,8.396 -2.864,16.972 -4.524,25.504 0,-0.116 0.004,-0.228 0.004,-0.344 0.008,-0.06 0.012,-0.12 0.012,-0.184 l 0.008,-6.08 c 0.016,-6.092 0.032,-12.184 -0.084,-18.272 -0.036,-1.564 -0.832,-3.752 -2.288,-4.904 -8.876,-7.012 -18,-14.004 -26.828,-20.764 l -1.244,-0.948 c -1.64,-1.256 -3.12,-1.62 -4.396,-1.088 -1.276,0.536 -2.064,1.852 -2.324,3.916 -2.908,22.824 -7.344,46.572 -13.196,70.58 -11.508,47.26 -25.268,84.8 -43.304,118.144 -0.54,0.996 -0.52,2.124 -0.504,3.116 0.008,0.36 0.016,0.72 -0.012,1.064 -0.032,0.396 0.104,0.78 0.372,1.076 0.5,0.544 1.332,0.456 2.104,0.532 0.432,0.044 0.896,0.088 1.36,0.088 0.604,0 1.22,-0.08 1.808,-0.332 13.848,-6.024 28.112,-10.88 42.42,-14.524 -1.688,3.1 -3.352,6.216 -5.116,9.252 -0.58,1 -0.536,2.156 -0.5,3.18 0.016,0.36 0.032,0.724 0.008,1.068 -0.028,0.396 0.112,0.78 0.38,1.068 0.268,0.284 0.532,0.492 1.04,0.444 0.32,-0.016 0.704,0.028 1.072,0.064 0.404,0.036 0.832,0.076 1.268,0.076 0.616,0 1.248,-0.08 1.852,-0.344 25.768,-11.324 53.048,-19.952 81.092,-25.68 v 11.036 c -0.244,0.08 -0.488,0.16 -0.732,0.24 -11.412,3.824 -22.816,7.644 -34.272,11.324 -22.744,7.292 -43.38,11.344 -63.084,12.376 -5.4,0.276 -10.748,0.212 -16.416,0.132 -2.6,-0.036 -5.236,-0.072 -7.912,-0.072 -0.72,0 -1.324,0.54 -1.408,1.252 -0.916,7.804 1.14,14.144 6.096,18.9 -5.048,-0.832 -8.916,-3.804 -8.916,-7.256 0,-0.78 -0.636,-1.416 -1.416,-1.416 -0.78,0 -1.416,0.636 -1.416,1.416 0,4.072 -5.368,7.508 -11.724,7.508 -6.356,0 -11.724,-3.436 -11.724,-7.508 0,-0.78 -0.636,-1.416 -1.416,-1.416 -0.78,0 -1.416,0.636 -1.416,1.416 0,5.704 6.532,10.344 14.56,10.344 5.816,0 10.812,-2.452 13.14,-5.968 2.328,3.512 7.324,5.968 13.14,5.968 6.024,0 11.204,-2.616 13.416,-6.328 2.212,3.716 7.392,6.328 13.416,6.328 5.816,0 10.812,-2.452 13.14,-5.968 2.328,3.512 7.324,5.968 13.14,5.968 5.692,0 10.58,-2.356 12.972,-5.748 2.392,3.392 7.28,5.748 12.972,5.748 5.816,0 10.812,-2.452 13.14,-5.968 2.328,3.512 7.324,5.968 13.14,5.968 5.708,0 10.612,-2.368 12.996,-5.776 2.384,3.408 7.288,5.776 12.996,5.776 5.816,0 10.812,-2.452 13.14,-5.968 2.328,3.512 7.324,5.968 13.14,5.968 6.024,0 11.204,-2.612 13.416,-6.324 2.212,3.712 7.392,6.324 13.416,6.324 8.028,0 14.56,-4.64 14.56,-10.344 0,-0.78 -0.636,-1.416 -1.416,-1.416 -0.78,0 -1.416,0.636 -1.416,1.416 0,4.072 -5.368,7.508 -11.724,7.508 -6.356,0 -11.724,-3.436 -11.724,-7.508 0,-0.78 -0.636,-1.416 -1.416,-1.416 -0.096,0 -0.18,0.036 -0.272,0.056 -0.092,-0.02 -0.176,-0.056 -0.272,-0.056 -0.78,0 -1.416,0.636 -1.416,1.416 0,4.072 -5.368,7.508 -11.724,7.508 -1.476,0 -2.888,-0.2 -4.204,-0.536 1.204,-14.532 6.048,-27.068 14.284,-37.56 0.068,-0.012 0.136,-0.028 0.204,-0.044 -0.02,-0.056 -0.012,-0.116 -0.032,-0.172 3.868,-4.884 8.404,-9.368 13.78,-13.324 1.04,-0.76 2.38,-1.392 3.876,-1.816 11.804,-3.348 23.632,-6.616 35.46,-9.872 4.408,-1.224 4.432,-4.088 4.052,-5.684 z M 168.833,10.235 h 0.004 c 0.956,0.032 1.936,-0.02 2.712,-0.084 0.524,-0.02 1.036,-0.124 1.528,-0.312 l 0.64,-0.084 0.608,0.04 0.02,-0.264 0.416,-0.136 c 0.98,-0.364 2.024,-0.78 3.156,-1.268 l 4.496,-1.792 c 1.04,-0.444 2.152,-0.976 3.324,-1.54 0.764,-0.364 1.564,-0.748 2.384,-1.12 2.212,-1.032 4.424,-1.772 6.588,-2.208 2.36,-0.496 4.956,-0.436 7.14,0.168 4.6,1.248 7.588,3.872 9.672,6.012 2.008,2.124 3.504,4.48 4.104,6.464 0.276,0.864 0.404,1.572 0.472,2.056 l -0.016,0.74 -0.312,-0.696 c -0.164,-0.304 -0.508,-0.932 -1.056,-1.66 -0.94,-1.22 -2.604,-2.98 -5.196,-4.444 -2.844,-1.632 -5.988,-2.576 -8.624,-2.584 -1.616,0 -2.988,0.472 -4.244,0.992 -1.456,0.644 -2.904,1.504 -4.296,2.56 -1.084,0.808 -2.164,1.784 -3.304,2.82 l -1.084,0.976 c -1.8,1.632 -3.632,2.888 -5.428,3.72 -2.292,1 -4.752,1.5 -7.02,1.388 -0.632,-0.012 -1.192,-0.06 -1.708,-0.14 l -1.524,-0.308 c -1.16,-0.312 -2.188,-0.692 -3.052,-1.132 -0.128,-0.068 -0.24,-0.14 -0.344,-0.216 -0.02,-0.012 -0.036,-0.024 -0.056,-0.036 z m -78.272,3.416 c 0.156,-1.22 0.488,-1.612 0.604,-1.66 0.112,-0.048 0.62,-0.012 1.58,0.724 l 1.244,0.948 c 8.82,6.756 17.936,13.744 26.792,20.744 0.612,0.484 1.192,1.788 1.212,2.736 0.052,2.64 0.028,5.284 0.04,7.928 L 88.037,31.311 c 0.936,-5.94 1.78,-11.832 2.524,-17.66 z m -2.724,18.804 34.2,13.844 c 0.008,3.016 0.052,6.032 0.044,9.052 l -0.012,5.904 c -0.008,0.06 -0.012,0.12 -0.012,0.184 0,1.64 -0.028,3.284 -0.06,4.924 -0.052,2.972 -0.064,6.024 0.064,9.068 -0.148,0.644 -0.316,1.256 -0.468,1.896 L 80.509,72.451 c -0.196,-0.04 -0.352,0.056 -0.468,0.2 3.048,-13.56 5.68,-27 7.796,-40.196 z M 77.309,84.543 c 0.928,-3.82 1.764,-7.616 2.62,-11.42 0.052,0.224 0.2,0.42 0.444,0.448 l 40.944,4.86 c -2.608,11.072 -5.436,21.824 -8.548,32.188 l -41.544,-2.804 c 2.1,-7.504 4.128,-15.236 6.084,-23.272 z m -6.372,24.32 c 0.06,0.028 0.1,0.08 0.168,0.084 l 41.308,2.788 c -4.024,13.292 -8.52,25.98 -13.42,38.216 l -42.92,4.332 c 5.376,-14.144 10.3,-29.192 14.864,-45.42 z m -35.692,96.096 c -0.348,0.156 -1.012,0.096 -1.664,0.032 -0.012,-0.648 -0.016,-1.3 0.16,-1.624 8.116,-15 15.364,-30.848 21.936,-48.016 0.076,0.036 0.14,0.088 0.228,0.088 0.02,0 0.04,0 0.06,-0.004 l 42.556,-4.296 c -5.396,13.352 -11.288,26.16 -17.792,38.404 -0.224,0.072 -0.424,0.156 -0.676,0.22 -15.108,3.728 -30.188,8.84 -44.808,15.196 z m 124.088,-25.596 c -28.24,5.772 -55.712,14.472 -81.668,25.88 -0.356,0.152 -1.012,0.1 -1.664,0.048 -0.024,-0.592 -0.044,-1.3 0.12,-1.58 8.148,-14.036 15.492,-28.748 22.088,-44.256 l 61.124,-5.76 z m 0,-26.804 -60.648,5.716 c 5.416,-12.832 10.28,-26.264 14.696,-40.264 l 45.952,2.9 z m 0,-32.784 -45.596,-2.876 c 3.076,-9.836 5.912,-19.984 8.524,-30.452 l 37.072,4.108 z m 0,-30.356 -36.8,-4.08 c 0.792,-3.204 1.62,-6.356 2.368,-9.62 1.936,-8.432 3.54,-17.012 5.028,-25.532 l 29.3,11.068 c 0.036,0.012 0.068,0.012 0.104,0.02 z m 0,-29.332 -29.204,-11.032 c 0.708,-4.072 1.396,-8.124 2.068,-12.128 0.88,-5.252 1.764,-10.512 2.696,-15.752 0.36,-2.032 0.796,-2.304 0.792,-2.304 -0.008,0.004 0.484,-0.084 1.988,1.076 3.96,3.04 7.908,6.088 11.856,9.14 l 8.94,6.9 c 0.268,0.208 0.548,0.404 0.864,0.612 z m 26.264,19.424 c 1.288,1.6 2.54,3.148 3.492,4.26 18.924,22.076 53.26,63.56 60.336,72.544 -2.824,-0.516 -7.66,-1.516 -11.788,-2.372 -3.744,-0.776 -7.424,-1.54 -9.952,-2.02 -3.908,-0.748 -9.364,-1.004 -15.104,-1.004 -11.072,0 -23.192,0.968 -27.284,1.328 0.576,-4.828 2.492,-20.96 3.272,-27.988 0.008,-0.072 0.012,-0.14 0.004,-0.212 -0.772,-10.26 -3.56,-28.192 -5.404,-40.056 -0.544,-3.492 -1.068,-6.872 -1.408,-9.16 1.2,1.412 2.684,3.256 3.836,4.68 z m -16.776,-22.604 10.468,14.428 c -0.024,0.06 -0.104,0.092 -0.116,0.156 -0.124,0.564 0.088,2.124 1.752,12.856 1.832,11.784 4.596,29.58 5.38,39.768 -0.936,8.38 -3.428,29.248 -3.428,29.252 -0.028,0.208 0.024,0.408 0.112,0.596 l -14.168,20.332 z m 0,119.376 15.1,-21.676 c 0.064,0.004 0.12,0.028 0.184,0.024 0.304,-0.032 30.612,-2.864 43.156,-0.48 2.516,0.48 6.188,1.24 9.916,2.012 9.856,2.044 13.504,2.756 14.588,2.756 0.084,0 0.148,-0.004 0.2,-0.012 0.152,-0.02 0.248,-0.148 0.376,-0.224 l 10.8,7.148 -2.04,0.404 c -23.356,4.6 -47.508,9.364 -70.636,16.832 -7.232,2.336 -14.436,4.76 -21.644,7.168 z m -6.66,4.24 V 35.827 3.131 h 4.396 v 187.852 c -1.464,0.488 -2.932,0.964 -4.396,1.456 z m -2.096,15.604 c 8.508,-2.86 17.028,-5.68 25.552,-8.468 -4.492,3.72 -8.592,7.888 -12.124,12.52 -1.82,2.38 -3.96,4.884 -6.58,4.884 -0.172,0 -0.344,-0.012 -0.516,-0.032 -1.612,-0.204 -3.1,-1.416 -4.424,-3.6 -0.984,-1.632 -1.728,-3.38 -2.26,-5.188 0.116,-0.04 0.236,-0.076 0.352,-0.116 z m -34.308,11.328 c 5.62,-1.804 11.212,-3.7 16.812,-5.552 1.632,6.288 3.22,13.56 3.364,17.576 0.052,1.336 0.052,2.86 -0.58,4.036 -0.716,1.352 -1.9,1.704 -2.764,1.764 -0.1,0.004 -0.208,0.008 -0.308,0.008 -1.86,0 -3.936,-1.108 -5.144,-2.776 -1.076,-1.488 -1.82,-3.284 -2.544,-5.028 -0.74,-1.776 -1.5,-3.612 -2.628,-5.184 -1.792,-2.5 -4.204,-3.896 -6.756,-4.676 0.184,-0.06 0.364,-0.108 0.548,-0.168 z m -5.764,1.768 c -0.004,0.004 -0.004,0.008 -0.008,0.012 1.032,1.016 2.024,2.076 2.932,3.224 0.616,0.772 0.872,1.376 0.756,1.78 -0.056,0.204 -0.156,0.26 -0.24,0.308 -0.38,0.156 -1.196,-0.052 -2.072,-0.54 -2.612,-1.448 -5.444,-2.324 -8.36,-2.764 2.312,-0.644 4.64,-1.312 6.992,-2.02 z m -26.956,6.792 c -0.42,0.272 -0.844,0.54 -1.264,0.816 -2.18,1.424 -4.428,2.904 -6.828,3.836 -2.044,0.796 -5.976,1.816 -9.336,-0.272 -0.644,-0.4 -1.196,-0.892 -1.692,-1.448 6.256,-0.692 12.612,-1.648 19.12,-2.932 z m -46.044,21.452 c -0.252,-0.132 -0.54,-0.232 -0.76,-0.392 -3.892,-2.864 -6.228,-6.476 -7.112,-10.892 2.364,0.432 4.712,0.956 7.008,1.648 0.704,0.212 1.408,0.436 2.108,0.66 2.328,0.744 4.736,1.508 7.236,1.808 0.344,0.044 0.748,0.076 1.176,0.096 -0.228,3.496 -4.376,6.456 -9.656,7.072 z m 12.8,-8.188 c -0.26,-0.356 -0.656,-0.604 -1.128,-0.604 -0.096,0 -0.184,0.036 -0.276,0.056 -0.092,-0.02 -0.176,-0.056 -0.276,-0.056 -0.544,0 -1.008,0.32 -1.244,0.772 -0.432,-0.016 -0.848,0 -1.292,-0.052 -2.416,-0.292 -4.78,-1.048 -7.068,-1.772 -0.712,-0.228 -1.416,-0.452 -2.124,-0.664 -2.448,-0.74 -4.948,-1.296 -7.472,-1.744 -0.232,-1.616 -0.284,-3.344 -0.148,-5.18 2.224,0.008 4.416,0.036 6.588,0.068 5.716,0.08 11.104,0.152 16.596,-0.14 1.752,-0.092 3.524,-0.236 5.292,-0.376 0.276,2.868 -0.456,5.836 -2.84,7.784 -1.204,0.984 -2.812,1.604 -4.608,1.908 z m 12.016,8.324 c -3.512,0 -6.684,-1.072 -8.852,-2.696 1.54,-0.02 3.1,-0.108 4.552,-0.264 5.248,-0.552 10.34,-1.24 15.272,-2.028 -1.664,2.868 -5.992,4.988 -10.972,4.988 z m 26.284,0 c -2.06,0 -3.988,-0.388 -5.688,-1.016 5.628,-1.14 11.168,-2.372 16.556,-3.772 -1.748,2.768 -6.008,4.788 -10.868,4.788 z m 14.604,-5.736 c 2.324,-0.58 4.72,-1.06 7.26,-1.072 h 0.06 c 2.796,0 5.184,0.848 5.588,1.612 0.06,0.108 0.088,0.236 -0.048,0.432 -0.376,0.552 -1.62,1.08 -2.364,1.396 -1.392,0.588 -3.484,1.232 -5.972,1.896 -2.204,-1.032 -3.84,-2.536 -4.524,-4.264 z m 11.336,5.736 c -1.944,0 -3.764,-0.352 -5.4,-0.912 2.02,-0.564 3.716,-1.108 4.912,-1.616 1.18,-0.5 2.272,-1.008 2.76,-1.716 0.3,-0.436 0.336,-0.924 0.096,-1.376 -0.724,-1.364 -3.82,-2.092 -6.396,-2.092 h -0.064 c -2.62,0.012 -5.064,0.496 -7.424,1.084 0.036,-0.296 0.124,-0.58 0.124,-0.88 0,-0.78 -0.636,-1.416 -1.416,-1.416 -0.06,0 -0.112,0.028 -0.168,0.032 -0.056,-0.008 -0.108,-0.032 -0.168,-0.032 -0.78,0 -1.416,0.636 -1.416,1.416 0,0.376 0.1,0.732 0.156,1.1 -0.044,0.188 -0.08,0.376 -0.148,0.56 -6.008,1.58 -12.224,2.948 -18.532,4.208 -2,-1.012 -3.492,-2.412 -4.16,-4.02 2.436,-0.428 4.836,-0.88 7.168,-1.364 1.212,-0.252 2.416,-0.516 3.62,-0.776 4.58,-0.992 9.312,-2.02 14.604,-2.58 6.44,-0.676 14.68,-0.5 17.964,1.16 1.2,0.6 1.464,1.276 1.572,1.864 0.432,2.404 -2.168,5.008 -6.868,7.3 -0.272,0.012 -0.536,0.056 -0.816,0.056 z m 26.288,0.004 c -6.36,-0.004 -11.724,-3.444 -11.724,-7.512 0,-0.78 -0.636,-1.416 -1.416,-1.416 -0.78,0 -1.416,0.636 -1.416,1.416 0,3.32 -3.596,6.188 -8.364,7.14 3.752,-2.224 5.66,-4.692 5.216,-7.148 -0.196,-1.108 -0.848,-1.912 -2.056,-2.516 -3.44,-1.732 -11.888,-1.948 -18.464,-1.248 -5.34,0.56 -10.1,1.588 -14.704,2.588 -1.204,0.26 -2.408,0.524 -3.616,0.772 -2.356,0.492 -4.78,0.944 -7.244,1.38 -0.068,-0.324 -0.16,-0.64 -0.16,-0.972 0,-0.78 -0.636,-1.416 -1.416,-1.416 -0.78,0 -1.416,0.636 -1.416,1.416 0,0.516 -0.088,1.024 -0.256,1.516 -5.112,0.832 -10.4,1.556 -15.864,2.136 -1.768,0.184 -3.7,0.3 -5.52,0.256 -1.096,-1.12 -1.76,-2.416 -1.792,-3.8 1.648,-0.288 3.384,-0.904 4.876,-2.124 2.64,-2.156 3.456,-5.42 3.164,-8.552 1.576,-0.132 3.16,-0.296 4.748,-0.464 0.636,0.812 1.348,1.556 2.24,2.108 3.7,2.284 7.94,1.2 10.14,0.344 2.488,-0.968 4.78,-2.468 6.996,-3.92 0.664,-0.432 1.324,-0.868 1.992,-1.288 0.508,-0.32 1.048,-0.58 1.568,-0.88 4.86,-1.016 9.8,-2.188 14.84,-3.536 3.596,0.228 7.084,1.156 10.256,2.912 0.68,0.38 1.96,0.96 2.856,0.584 0.032,-0.012 0.064,-0.028 0.096,-0.044 0.328,-0.168 0.56,-0.46 0.668,-0.848 0.264,-0.952 -0.396,-1.932 -0.916,-2.592 -0.832,-1.056 -1.76,-2.016 -2.7,-2.96 0.896,-0.272 1.792,-0.544 2.696,-0.828 2.876,0.612 5.64,1.98 7.608,4.72 1.068,1.48 1.808,3.268 2.528,5 0.74,1.788 1.508,3.636 2.644,5.212 1.372,1.896 3.748,3.156 5.888,3.156 0.12,0 0.244,-0.008 0.364,-0.016 1.552,-0.104 2.792,-0.904 3.504,-2.24 0.736,-1.38 0.74,-3.044 0.684,-4.496 -0.152,-4.088 -1.76,-11.468 -3.412,-17.828 3.56,-1.18 7.128,-2.34 10.684,-3.528 0.424,1.308 0.84,2.62 1.212,3.944 1.404,5.016 2.668,10.112 3.76,15.152 0.92,4.236 1.692,9.056 -0.872,12.7 -0.92,1.312 -2.264,2.428 -3.568,3.516 -1.508,1.252 -3.016,2.556 -3.92,4.176 -0.14,0.004 -0.272,0.028 -0.412,0.028 z m 46.212,-8.244 c -6.248,-1.476 -11.54,-3.86 -15.128,-7.08 -0.548,-0.484 -2.44,-1.996 -3.98,-1.08 -0.724,0.436 -0.924,1.204 -0.6,2.276 0.884,2.908 3.368,9.164 6.456,12.044 0.084,0.084 0.2,0.12 0.308,0.12 0.12,0 0.244,-0.048 0.332,-0.144 0.172,-0.184 0.16,-0.468 -0.024,-0.64 -2.732,-2.548 -5.208,-8.36 -6.208,-11.644 -0.248,-0.828 -0.04,-1.084 0.204,-1.232 0.784,-0.484 2.068,0.224 2.908,0.972 3.712,3.332 9.18,5.792 15.62,7.3 -0.308,1.904 -0.572,3.836 -0.752,5.812 -2.88,-1.38 -4.8,-3.556 -4.8,-5.972 0,-0.78 -0.636,-1.416 -1.416,-1.416 -0.78,0 -1.416,0.636 -1.416,1.416 0,4.072 -5.368,7.508 -11.724,7.508 -0.204,0 -0.392,-0.032 -0.592,-0.04 -1.736,-5.912 -3.552,-17.88 -3.612,-23.852 -0.016,-1.28 0.024,-2.744 0.648,-3.856 0.716,-1.272 1.852,-1.584 2.676,-1.616 0.06,-0.004 0.12,-0.004 0.18,-0.004 1.796,0 3.8,1.12 4.928,2.78 0.988,1.452 1.656,3.2 2.3,4.888 0.66,1.724 1.344,3.508 2.384,5.044 2.908,4.304 7.66,5.512 11.912,5.6 -0.2,0.94 -0.436,1.856 -0.604,2.816 z m 12.612,-29.988 c -1.968,0.416 -3.992,0.744 -6.104,0.744 -0.14,0 -0.28,0 -0.42,-0.004 -2.816,-0.06 -5.216,-0.968 -5.604,-1.752 -0.056,-0.108 -0.084,-0.24 0.06,-0.436 0.364,-0.5 1.428,-0.952 2.404,-1.336 4.796,-1.892 10.296,-3.476 16.16,-4.736 -2.356,2.388 -4.548,4.88 -6.496,7.52 z m 7.66,-8.696 c -6.424,1.316 -12.452,3.012 -17.664,5.068 -1.136,0.448 -2.292,0.948 -2.8,1.648 -0.312,0.428 -0.36,0.916 -0.136,1.372 0.696,1.396 3.816,2.204 6.404,2.252 0.144,0.004 0.292,0.004 0.44,0.004 1.812,0 3.548,-0.232 5.236,-0.548 -0.78,1.1 -1.436,2.272 -2.144,3.416 -0.056,0.008 -0.104,0.02 -0.16,0.024 -4.904,0.496 -11.472,0.096 -13.956,-1.604 -0.916,-0.624 -1.108,-1.32 -1.18,-1.916 -0.444,-3.752 4.364,-7.656 12.56,-10.18 4.152,-1.28 11.352,-3.104 18.776,-4.272 -1.888,1.516 -3.688,3.092 -5.376,4.736 z m 48.404,-19.136 c -11.836,3.252 -23.672,6.532 -35.484,9.88 -1.268,0.36 -3.128,1.044 -4.78,2.26 -0.5,0.368 -0.928,0.78 -1.416,1.156 -8,1.152 -15.936,3.132 -20.388,4.504 -8.64,2.66 -13.696,6.936 -13.192,11.152 0.08,0.696 0.328,1.716 1.564,2.564 2.008,1.372 6.212,1.964 10.372,1.964 1.252,0 2.476,-0.076 3.66,-0.176 -1.2,2.008 -2.288,4.084 -3.276,6.212 -1.556,0 -3.112,0 -4.76,-0.12 -5.288,-0.392 -10.264,-3.58 -12.108,-7.748 -1.632,-3.692 -0.776,-7.836 2.472,-11.98 0.156,-0.2 0.12,-0.484 -0.076,-0.636 -0.204,-0.156 -0.48,-0.12 -0.636,0.076 -4.388,5.592 -3.828,10.108 -2.588,12.912 1.968,4.46 7.26,7.868 12.868,8.284 1.528,0.112 2.96,0.104 4.404,0.108 -1.932,4.316 -3.416,8.888 -4.492,13.692 -4.072,-0.052 -8.628,-1.148 -11.372,-5.208 -0.98,-1.448 -1.64,-3.184 -2.284,-4.86 -0.664,-1.74 -1.352,-3.532 -2.4,-5.072 -1.288,-1.9 -3.6,-3.18 -5.684,-3.18 -0.076,0 -0.144,0 -0.216,0.004 -1.492,0.064 -2.712,0.8 -3.424,2.08 -0.74,1.308 -0.78,2.912 -0.764,4.308 0.06,5.94 1.836,17.712 3.568,23.78 -5.16,-0.46 -9.332,-3.148 -10.02,-6.456 0.04,-0.316 0.136,-0.624 0.136,-0.948 0,-0.78 -0.636,-1.416 -1.416,-1.416 -0.052,0 -0.096,0.024 -0.144,0.028 -0.048,-0.004 -0.092,-0.028 -0.144,-0.028 -0.78,0 -1.416,0.636 -1.416,1.416 0,0.324 0.092,0.632 0.136,0.948 -0.692,3.312 -4.864,5.996 -10.024,6.456 0.84,-1.232 2.052,-2.308 3.372,-3.404 1.344,-1.12 2.74,-2.28 3.728,-3.688 2.64,-3.756 2.048,-8.672 1.012,-13.416 -1.092,-5.056 -2.364,-10.168 -3.768,-15.2 -0.376,-1.336 -0.792,-2.664 -1.224,-3.988 1.292,-0.432 2.588,-0.848 3.876,-1.28 0.552,1.872 1.324,3.684 2.344,5.372 1.472,2.432 3.184,3.792 5.084,4.032 0.224,0.028 0.436,0.044 0.648,0.044 3.012,0 5.328,-2.688 7.28,-5.248 4.004,-5.24 8.756,-9.864 13.984,-13.92 1.052,-0.344 2.096,-0.704 3.144,-1.044 22.96,-7.416 47.032,-12.16 70.308,-16.748 l 2.832,-0.56 c 2.452,-0.488 2.624,0.132 2.78,0.796 0.148,0.724 0.36,1.624 -2.076,2.296 z"
   id="path2"
   style="fill:#666666" />
			<path
   d="m 55.397,252.899 c -0.312,0 -0.568,0.252 -0.568,0.568 0,2.148 -2.696,3.9 -6.004,3.9 -3.308,0 -6.004,-1.752 -6.004,-3.9 0,-0.312 -0.252,-0.568 -0.568,-0.568 -0.316,0 -0.568,0.252 -0.568,0.568 0,2.148 -2.696,3.9 -6.004,3.9 -3.308,0 -6,-1.752 -6,-3.9 0,-0.312 -0.252,-0.568 -0.568,-0.568 -0.316,0 -0.568,0.252 -0.568,0.568 0,2.772 3.204,5.032 7.136,5.032 2.948,0 5.484,-1.268 6.572,-3.068 1.088,1.804 3.624,3.068 6.572,3.068 3.932,0 7.136,-2.256 7.136,-5.032 0,-0.316 -0.252,-0.568 -0.564,-0.568 z"
   id="path3"
   style="fill:#666666;fill-opacity:1;stroke:none;stroke-opacity:1" />
			<path
   d="m 93.329,267.499 c -0.312,0 -0.568,0.252 -0.568,0.568 0,2.148 -2.696,3.9 -6.004,3.9 -3.308,0 -6.004,-1.752 -6.004,-3.9 0,-0.312 -0.252,-0.568 -0.568,-0.568 -0.316,0 -0.568,0.252 -0.568,0.568 0,2.148 -2.696,3.9 -6.004,3.9 -3.308,0 -6.004,-1.752 -6.004,-3.9 0,-0.312 -0.252,-0.568 -0.568,-0.568 -0.316,0 -0.56,0.256 -0.56,0.568 0,2.772 3.204,5.032 7.136,5.032 2.948,0 5.484,-1.268 6.572,-3.068 1.088,1.804 3.624,3.068 6.572,3.068 3.932,0 7.136,-2.256 7.136,-5.032 0,-0.312 -0.256,-0.568 -0.568,-0.568 z"
   id="path4"
   style="fill:#666666;fill-opacity:1;stroke:none;stroke-opacity:1" />
			<path
   d="m 131.749,250.663 c -0.312,0 -0.568,0.252 -0.568,0.568 0,2.148 -2.696,3.9 -6.004,3.9 -3.308,0 -6.004,-1.752 -6.004,-3.9 0,-0.312 -0.252,-0.568 -0.568,-0.568 -0.316,0 -0.568,0.252 -0.568,0.568 0,2.148 -2.696,3.9 -6.004,3.9 -3.308,0 -6.004,-1.752 -6.004,-3.9 0,-0.312 -0.252,-0.568 -0.568,-0.568 -0.316,0 -0.568,0.252 -0.568,0.568 0,2.772 3.204,5.032 7.136,5.032 2.948,0 5.484,-1.268 6.572,-3.068 1.088,1.804 3.624,3.068 6.572,3.068 3.932,0 7.136,-2.256 7.136,-5.032 0.004,-0.312 -0.248,-0.568 -0.56,-0.568 z"
   id="path5"
   style="fill:#666666;fill-opacity:1;stroke:none;stroke-opacity:1" />
			<path
   d="m 213.009,252.899 c -0.312,0 -0.568,0.252 -0.568,0.568 0,2.148 -2.696,3.9 -6.004,3.9 -3.308,0 -6.004,-1.752 -6.004,-3.9 0,-0.312 -0.252,-0.568 -0.568,-0.568 -0.316,0 -0.568,0.252 -0.568,0.568 0,2.148 -2.696,3.9 -6.004,3.9 -3.308,0 -6.004,-1.752 -6.004,-3.9 0,-0.312 -0.252,-0.568 -0.568,-0.568 -0.316,0 -0.568,0.252 -0.568,0.568 0,2.772 3.204,5.032 7.136,5.032 2.948,0 5.484,-1.268 6.572,-3.068 1.088,1.804 3.624,3.068 6.572,3.068 3.932,0 7.136,-2.256 7.136,-5.032 0.008,-0.316 -0.248,-0.568 -0.56,-0.568 z"
   id="path6"
   style="fill:#666666;fill-opacity:1;stroke:none;stroke-opacity:1" />
			<path
   d="m 170.161,268.711 c -0.312,0 -0.568,0.252 -0.568,0.568 0,2.148 -2.696,3.9 -6.004,3.9 -3.308,0 -6.004,-1.752 -6.004,-3.9 0,-0.312 -0.252,-0.568 -0.568,-0.568 -0.316,0 -0.568,0.252 -0.568,0.568 0,2.148 -2.696,3.9 -6.004,3.9 -3.308,0 -6.004,-1.752 -6.004,-3.9 0,-0.312 -0.252,-0.568 -0.568,-0.568 -0.316,0 -0.568,0.252 -0.568,0.568 0,2.772 3.204,5.032 7.136,5.032 2.948,0 5.484,-1.268 6.572,-3.068 1.088,1.804 3.624,3.068 6.572,3.068 3.932,0 7.136,-2.256 7.136,-5.032 0.008,-0.312 -0.248,-0.568 -0.56,-0.568 z"
   id="path7"
   style="fill:#666666;fill-opacity:1;stroke:none;stroke-opacity:1" />
		<path
   style="font-style:italic;font-weight:500;font-size:32.1949px;font-family:Iosevka;-inkscape-font-specification:'Iosevka Medium Italic';direction:rtl;fill:#666666;stroke-width:3.80254;stroke-linecap:round;stroke-linejoin:round"
   d="m 66.149669,321.48724 3.895583,-23.66325 h 2.929736 l -3.477049,21.08766 h 8.370674 l -0.418534,2.57559 z m 20.154008,0.25756 q -0.869262,0 -1.64194,-0.25756 -0.772678,-0.25756 -1.352186,-0.80487 -0.547313,-0.57951 -0.869262,-1.31999 -0.289754,-0.77268 -0.418534,-1.57755 -0.09658,-0.83707 -0.06439,-1.67413 0.06439,-0.86927 0.19317,-1.73853 l 0.643898,-3.86339 q 0.128779,-0.70829 0.321949,-1.41657 0.193169,-0.70829 0.515118,-1.38438 0.321949,-0.6761 0.804873,-1.2878 0.482923,-0.6117 1.094626,-1.06243 0.643898,-0.45073 1.384381,-0.6439 0.740483,-0.22536 1.448771,-0.22536 0.804872,0 1.57755,0.25756 0.804872,0.22536 1.352186,0.74048 0.547313,0.51512 0.869262,1.2234 0.321949,0.70829 0.450728,1.51316 l 0.579509,-3.47704 h 2.929736 l -2.285838,13.74722 q -0.0322,0.12878 0,0.25756 0.0322,0.12878 0.09658,0.22536 0.09658,0.0966 0.225365,0.16098 0.128779,0.0322 0.289754,0.0322 h 0.643898 l -0.0322,2.57559 h -1.062432 q -0.643898,0 -1.255601,-0.16097 -0.611703,-0.12878 -1.062432,-0.51512 -0.450728,-0.38634 -0.676093,-0.96585 -0.193169,-0.57951 -0.160974,-1.2234 -0.321949,0.6117 -0.804873,1.19121 -0.482923,0.54731 -1.094626,0.93365 -0.579508,0.38634 -1.287796,0.54731 -0.676093,0.19317 -1.352186,0.19317 z m 1.223406,-2.57559 q 0.708288,0 1.384381,-0.22536 0.708288,-0.22537 1.223406,-0.74049 0.547313,-0.51511 0.837068,-1.19121 0.289754,-0.67609 0.418533,-1.38438 l 0.643898,-3.86339 q 0.06439,-0.51511 0.09659,-1.06243 0.06439,-0.54731 0,-1.06243 -0.06439,-0.51512 -0.225364,-0.99804 -0.160975,-0.48293 -0.515119,-0.83707 -0.321949,-0.38634 -0.804872,-0.54731 -0.482924,-0.19317 -0.998042,-0.19317 -0.740483,0 -1.480966,0.28975 -0.708287,0.28976 -1.255601,0.86926 -0.515118,0.57951 -0.804872,1.2878 -0.257559,0.70829 -0.386339,1.44877 l -0.643898,3.86339 q -0.09658,0.48292 -0.12878,0.99804 -0.0322,0.51512 0.0322,1.03024 0.09658,0.48292 0.289754,0.93365 0.19317,0.41853 0.515119,0.77268 0.354144,0.32195 0.837067,0.48292 0.482924,0.12878 0.965847,0.12878 z m 9.819445,2.31803 2.768762,-16.74134 h 2.92974 l -0.41854,2.54339 q 0.32195,-0.57951 0.77268,-1.12682 0.45073,-0.54731 1.03024,-0.93365 0.5795,-0.38634 1.2556,-0.54731 0.67609,-0.19317 1.31999,-0.19317 0.83707,0 1.60974,0.28975 0.80488,0.25756 1.35219,0.83707 0.54731,0.54731 0.83707,1.31999 0.28975,0.74048 0.38634,1.54535 0.0966,0.80488 0.0322,1.67414 -0.0322,0.83707 -0.19317,1.70633 l -1.57755,9.62627 h -2.92974 l 1.67414,-10.077 q 0.0644,-0.48292 0.0966,-0.96585 0.0322,-0.51512 -0.0322,-0.99804 -0.0644,-0.48292 -0.22537,-0.93365 -0.16097,-0.45073 -0.48292,-0.77268 -0.32195,-0.35414 -0.80487,-0.51512 -0.45073,-0.16097 -0.93365,-0.16097 -0.6761,0 -1.38438,0.25756 -0.6761,0.22536 -1.19122,0.74048 -0.51511,0.51512 -0.80487,1.19121 -0.25756,0.67609 -0.35414,1.35219 l -1.80292,10.88187 z m 21.216442,7.17947 q -0.74049,0 -1.48097,-0.0966 -0.70829,-0.0644 -1.38438,-0.28975 -0.67609,-0.22537 -1.2556,-0.6439 -0.57951,-0.38634 -0.96585,-0.96585 -0.35414,-0.54731 -0.48292,-1.28779 -0.16097,-0.70829 -0.0322,-1.44877 h 2.89755 q -0.0966,0.54731 0.16097,0.99804 0.25756,0.48292 0.67609,0.74048 0.45073,0.25756 0.96585,0.32195 0.54731,0.0966 1.09463,0.0966 0.70828,0 1.41657,-0.32194 0.70829,-0.28976 1.19121,-0.86927 0.48293,-0.57951 0.74049,-1.28779 0.25756,-0.70829 0.38634,-1.41658 l 0.54731,-3.31607 q -0.32195,0.64389 -0.80487,1.19121 -0.48293,0.54731 -1.09463,0.93365 -0.6117,0.38634 -1.2878,0.54731 -0.67609,0.19317 -1.35218,0.19317 -0.86926,0 -1.64194,-0.25756 -0.77268,-0.25756 -1.35219,-0.80487 -0.54731,-0.57951 -0.86926,-1.31999 -0.28975,-0.77268 -0.41853,-1.57755 -0.0966,-0.83707 -0.0644,-1.67413 0.0644,-0.86927 0.19317,-1.73853 l 0.64389,-3.86339 q 0.12878,-0.70829 0.32195,-1.41657 0.19317,-0.70829 0.51512,-1.38438 0.32195,-0.6761 0.80487,-1.2878 0.48293,-0.6117 1.09463,-1.06243 0.6439,-0.45073 1.38438,-0.6439 0.74048,-0.22536 1.44877,-0.22536 0.80487,0 1.57755,0.25756 0.80487,0.22536 1.35219,0.74048 0.54731,0.51512 0.86926,1.2234 0.32195,0.70829 0.45073,1.51316 l 0.57951,-3.47704 h 2.92973 l -2.96193,17.90036 q -0.12878,0.77268 -0.38634,1.54536 -0.25756,0.80487 -0.74048,1.51316 -0.45073,0.74048 -1.09463,1.31999 -0.64389,0.6117 -1.41657,0.96584 -0.77268,0.38634 -1.57755,0.51512 -0.80488,0.16098 -1.57755,0.16098 z m 1.15901,-9.4975 q 0.70829,0 1.38438,-0.22536 0.70829,-0.22537 1.22341,-0.74049 0.54731,-0.51511 0.83707,-1.19121 0.28975,-0.67609 0.41853,-1.38438 l 0.6439,-3.86339 q 0.0644,-0.51511 0.0966,-1.06243 0.0644,-0.54731 0,-1.06243 -0.0644,-0.51512 -0.22536,-0.99804 -0.16097,-0.48293 -0.51512,-0.83707 -0.32195,-0.38634 -0.80487,-0.54731 -0.48292,-0.19317 -0.99804,-0.19317 -0.74049,0 -1.48097,0.28975 -0.70829,0.28976 -1.2556,0.86926 -0.51512,0.57951 -0.80487,1.2878 -0.25756,0.70829 -0.38634,1.44877 l -0.6439,3.86339 q -0.0966,0.48292 -0.12878,0.99804 -0.0322,0.51512 0.0322,1.03024 0.0966,0.48292 0.28975,0.93365 0.19317,0.41853 0.51512,0.77268 0.35414,0.32195 0.83707,0.48292 0.48292,0.12878 0.96584,0.12878 z m 19.96084,8.2419 q -0.83707,0 -1.60974,-0.12878 -0.77268,-0.12878 -1.48097,-0.45073 -0.67609,-0.32195 -1.2234,-0.86927 -0.51512,-0.54731 -0.80488,-1.2556 -0.28975,-0.67609 -0.35414,-1.48096 -0.0322,-0.80487 0.0966,-1.60975 -0.77267,-0.16097 -1.44877,-0.48292 -0.67609,-0.35414 -1.19121,-0.86926 -0.48292,-0.51512 -0.80487,-1.19121 -0.32195,-0.6761 -0.48292,-1.41658 -0.16098,-0.77268 -0.12878,-1.54535 0.0322,-0.80488 0.19317,-1.60975 l 1.80291,-11.01066 q 0.12878,-0.80487 0.41853,-1.57755 0.28976,-0.80487 0.74049,-1.51316 0.48292,-0.70828 1.12682,-1.2556 0.67609,-0.57951 1.41657,-0.93365 0.77268,-0.35414 1.57755,-0.48292 0.83707,-0.16098 1.64194,-0.16098 0.93366,0 1.83511,0.19317 0.90146,0.19317 1.60975,0.6439 0.74048,0.45073 1.2556,1.19121 0.51512,0.70829 0.74048,1.57755 0.22537,0.83707 0.19317,1.77072 0,0.93365 -0.16097,1.86731 l -1.80292,11.01065 q -0.12878,0.67609 -0.35414,1.38438 -0.19317,0.67609 -0.54731,1.31999 -0.35415,0.61171 -0.86927,1.19121 -0.51512,0.54732 -1.15901,0.96585 -0.61171,0.38634 -1.31999,0.6439 -0.6761,0.22536 -1.35219,0.32195 -0.0966,0.6439 -0.0322,1.2234 0.0644,0.61171 0.38634,1.06244 0.35415,0.45072 0.90146,0.67609 0.54731,0.22536 1.15902,0.22536 h 0.83706 v 2.5756 z m -3.73461,-8.2419 q 0.70829,0 1.44877,-0.25756 0.74049,-0.25756 1.2878,-0.80487 0.57951,-0.54731 0.86926,-1.2556 0.28976,-0.70829 0.41854,-1.44877 l 1.83511,-11.01066 q 0.0644,-0.51512 0.0966,-1.03024 0.0322,-0.51511 -0.0644,-0.99804 -0.0644,-0.48292 -0.28975,-0.90145 -0.22537,-0.45073 -0.57951,-0.74049 -0.35415,-0.32195 -0.83707,-0.45073 -0.48292,-0.12878 -0.99804,-0.12878 -0.70829,0 -1.44877,0.25756 -0.74048,0.25756 -1.31999,0.80488 -0.54732,0.54731 -0.83707,1.2556 -0.28975,0.70829 -0.41853,1.44877 l -1.83511,11.01065 q -0.0644,0.51512 -0.0966,1.03024 0,0.51512 0.0644,0.99804 0.0966,0.48293 0.28976,0.93365 0.22536,0.41854 0.5795,0.74049 0.35415,0.28975 0.83707,0.41853 0.48293,0.12878 0.99804,0.12878 z m 14.87405,2.57559 q -0.83707,0 -1.64194,-0.25756 -0.77268,-0.28975 -1.31999,-0.83706 -0.51512,-0.57951 -0.80488,-1.31999 -0.28975,-0.77268 -0.41853,-1.57755 -0.0966,-0.80488 -0.0322,-1.64194 0.0644,-0.86927 0.19317,-1.73853 l 1.60974,-9.62627 h 2.92974 l -1.67414,10.077 q -0.0966,0.48292 -0.12878,0.99804 -0.0322,0.48292 0.0322,0.96585 0.0644,0.48292 0.22536,0.93365 0.19317,0.45073 0.48292,0.80487 0.32195,0.32195 0.80488,0.48293 0.48292,0.16097 0.96584,0.16097 0.6761,0 1.35219,-0.22536 0.67609,-0.25756 1.19121,-0.77268 0.51512,-0.51512 0.77268,-1.19121 0.28975,-0.6761 0.41853,-1.35219 l 1.80292,-10.88187 h 2.92973 l -2.28584,13.74722 q -0.0322,0.12878 0,0.25756 0.0322,0.12878 0.0966,0.22536 0.0966,0.0966 0.22536,0.16098 0.12878,0.0322 0.28976,0.0322 h 0.6439 l -0.0322,2.57559 h -1.06243 q -0.6439,0 -1.2556,-0.16097 -0.6117,-0.12878 -1.06243,-0.48293 -0.45073,-0.38633 -0.6761,-0.96584 -0.19317,-0.57951 -0.12878,-1.22341 -0.35414,0.6117 -0.83706,1.15902 -0.45073,0.54731 -1.03024,0.93365 -0.57951,0.38634 -1.2556,0.54731 -0.67609,0.19317 -1.31999,0.19317 z m 17.51402,0 q -0.96584,0 -1.8995,-0.19317 -0.90145,-0.16097 -1.67413,-0.6117 -0.74048,-0.48292 -1.2878,-1.19121 -0.51511,-0.74048 -0.77267,-1.60975 -0.22537,-0.90145 -0.22537,-1.83511 0,-0.96584 0.16098,-1.93169 l 0.64389,-3.86339 q 0.12878,-0.77268 0.38634,-1.57755 0.25756,-0.80487 0.74049,-1.51316 0.48292,-0.74048 1.12682,-1.31999 0.67609,-0.57951 1.44877,-0.93365 0.77268,-0.38634 1.57755,-0.51512 0.83707,-0.16097 1.64194,-0.16097 0.80487,0 1.57755,0.0966 0.80487,0.0966 1.51316,0.38634 0.70829,0.28975 1.28779,0.77268 0.57951,0.45073 0.93366,1.12682 0.38634,0.6439 0.51511,1.41657 0.12878,0.77268 -0.0322,1.57755 -0.0966,0.74049 -0.48292,1.44878 -0.35415,0.70828 -0.90146,1.31999 -0.54731,0.5795 -1.22341,0.99804 -0.67609,0.41853 -1.44877,0.67609 -0.74048,0.22537 -1.48096,0.32195 -0.74049,0.0966 -1.48097,0.0966 -0.90146,0 -1.77072,-0.0644 -0.83707,-0.0966 -1.64194,-0.28975 l -0.0644,0.45073 q -0.0966,0.54731 -0.12878,1.09463 0,0.51511 0.0966,1.03023 0.12878,0.51512 0.38634,0.96585 0.28975,0.41853 0.70828,0.74048 0.41854,0.28976 0.93366,0.41854 0.54731,0.0966 1.09462,0.0966 0.61171,0 1.2556,-0.19317 0.6439,-0.19317 1.15902,-0.6117 0.54731,-0.41854 0.93365,-0.96585 0.41854,-0.57951 0.6761,-1.19121 l 2.479,1.03024 q -0.45073,0.99804 -1.15901,1.8673 -0.6761,0.86926 -1.57755,1.51316 -0.90146,0.6117 -1.96389,0.86926 -1.03024,0.25756 -2.06048,0.25756 z m 0.6439,-9.59408 q 0.6439,0 1.2878,-0.0966 0.67609,-0.0966 1.2556,-0.41854 0.6117,-0.35414 1.06243,-0.90145 0.48292,-0.57951 0.57951,-1.22341 0.0966,-0.57951 -0.12878,-1.09463 -0.22537,-0.51511 -0.67609,-0.80487 -0.45073,-0.32195 -1.03024,-0.41853 -0.54731,-0.12878 -1.12682,-0.12878 -0.74048,0 -1.51316,0.28975 -0.74049,0.25756 -1.2878,0.83707 -0.54731,0.54731 -0.83707,1.2878 -0.28975,0.74048 -0.41853,1.48096 l -0.16097,0.86926 q 0.74048,0.16098 1.48096,0.25756 0.77268,0.0644 1.51316,0.0644 z m 15.09941,9.59408 q -0.70829,0 -1.44877,-0.0966 -0.70829,-0.0644 -1.38438,-0.25756 -0.6439,-0.22537 -1.22341,-0.57951 -0.57951,-0.35414 -0.99804,-0.90146 -0.38634,-0.54731 -0.54731,-1.2234 -0.12878,-0.70829 0,-1.44877 l 0.0322,-0.22537 h 2.89754 l -0.0322,0.0966 q -0.0966,0.54731 0.16097,0.99804 0.28976,0.45073 0.70829,0.67609 0.45073,0.22537 0.99804,0.32195 0.54732,0.0644 1.09463,0.0644 0.48292,0 0.99804,-0.0644 0.51512,-0.0644 0.99804,-0.25756 0.48293,-0.22536 0.86927,-0.6439 0.41853,-0.41853 0.48292,-0.93365 0.0966,-0.54731 -0.16098,-1.03024 -0.22536,-0.48292 -0.64389,-0.80487 -0.38634,-0.32195 -0.86927,-0.51512 -0.48292,-0.22536 -0.99804,-0.38633 -0.51512,-0.19317 -0.99804,-0.38634 -0.48292,-0.19317 -0.93365,-0.45073 -0.45073,-0.25756 -0.86926,-0.57951 -0.38634,-0.32195 -0.74049,-0.67609 -0.35414,-0.38634 -0.6117,-0.83707 -0.25756,-0.45073 -0.45073,-0.93365 -0.16097,-0.48293 -0.22536,-1.03024 -0.0644,-0.54731 0.0322,-1.09463 0.12878,-0.64389 0.41854,-1.2556 0.32194,-0.6439 0.80487,-1.12682 0.51512,-0.48292 1.12682,-0.80487 0.6117,-0.35415 1.2556,-0.54731 0.6439,-0.19317 1.2878,-0.25756 0.67609,-0.0644 1.31999,-0.0644 0.70829,0 1.38438,0.0966 0.70829,0.0644 1.35218,0.28975 0.6439,0.19317 1.19122,0.57951 0.5795,0.35415 0.93365,0.90146 0.38634,0.54731 0.51512,1.2556 0.12878,0.67609 0,1.38438 l -0.0322,0.22537 h -2.89754 v -0.0966 q 0.0966,-0.51512 -0.12878,-0.96585 -0.19317,-0.45072 -0.6117,-0.67609 -0.41854,-0.25756 -0.93365,-0.32195 -0.48293,-0.0966 -0.99805,-0.0966 -0.45073,0 -0.96584,0.0966 -0.48293,0.0644 -0.93366,0.28976 -0.45072,0.19317 -0.80487,0.6117 -0.32195,0.41853 -0.41853,0.86926 -0.0966,0.57951 0.12878,1.06243 0.22536,0.48293 0.6439,0.80488 0.41853,0.32195 0.90145,0.54731 0.48293,0.19317 0.96585,0.35414 0.51512,0.16098 0.99804,0.38634 0.51512,0.19317 0.93365,0.45073 0.45073,0.25756 0.86927,0.57951 0.41853,0.28975 0.77267,0.67609 0.35415,0.38634 0.61171,0.83707 0.28975,0.41853 0.45073,0.93365 0.19316,0.48293 0.22536,1.03024 0.0644,0.54731 -0.0322,1.09463 -0.0966,0.67609 -0.45072,1.31999 -0.35415,0.6117 -0.86927,1.09462 -0.51511,0.48293 -1.15901,0.80488 -0.6439,0.32194 -1.31999,0.51511 -0.6439,0.19317 -1.31999,0.25756 -0.6761,0.0644 -1.35219,0.0644 z m 18.41548,0 q -0.80487,0 -1.57755,-0.19317 -0.77267,-0.19317 -1.35218,-0.64389 -0.57951,-0.48293 -0.96585,-1.15902 -0.35414,-0.67609 -0.51512,-1.41658 -0.16097,-0.77267 -0.12878,-1.57755 0.0322,-0.80487 0.16098,-1.60974 l 1.31999,-7.82336 h -2.67218 l -0.0322,-2.57559 h 3.1229 l 1.12682,-6.92191 h 2.89754 l -1.12682,6.92191 h 5.24777 l 0.0322,2.57559 h -5.6985 l -1.38438,8.24189 q -0.0644,0.38634 -0.0966,0.80487 0,0.38634 0.0322,0.80488 0.0322,0.38634 0.12878,0.77267 0.12878,0.35415 0.35414,0.6439 0.22537,0.28976 0.57951,0.45073 0.38634,0.12878 0.80487,0.12878 0.38634,0 0.74048,-0.16097 0.38634,-0.16098 0.6761,-0.45073 0.28975,-0.32195 0.51512,-0.6761 0.22536,-0.35414 0.38633,-0.70828 0.16098,-0.38634 0.28976,-0.77268 0.12878,-0.38634 0.19317,-0.77268 l 2.73657,0.48293 q -0.12878,0.70828 -0.38634,1.38438 -0.25756,0.67609 -0.6439,1.31999 -0.35415,0.64389 -0.86926,1.2234 -0.51512,0.54732 -1.15902,0.96585 -0.6117,0.38634 -1.31999,0.54731 -0.70829,0.19317 -1.41658,0.19317 z"
   id="text1"
   aria-label="LangQuest" /></g>
	</g>
</g>
</svg>
