<?xml version="1.0" encoding="iso-8859-1"?>
<!-- Uploaded to: SVG Repo, www.svgrepo.com, Generator: SVG Repo Mixer Tools -->
<svg fill="#000000" height="800px" width="800px" version="1.1" id="Layer_1" xmlns="http://www.w3.org/2000/svg" xmlns:xlink="http://www.w3.org/1999/xlink" 
	 viewBox="0 0 274.311 274.311" xml:space="preserve">
<g>
	<g>
		<g>
			<path d="M217.601,133.999l11.512,6.272c0.084,0.048,0.176,0.072,0.268,0.072c0.2,0,0.396-0.104,0.496-0.296
				c0.152-0.272,0.052-0.616-0.228-0.764l-11.512-6.276c-0.272-0.152-0.62-0.056-0.764,0.228
				C217.221,133.507,217.321,133.851,217.601,133.999z"/>
			<path d="M270.021,168.603c-0.584-2.456-2.484-3.42-5.54-2.972l-11.636-7.7c0.016-0.12,0.1-0.228,0.08-0.348
				c-0.336-1.828-48.752-59.7-62.112-75.284c-0.94-1.096-2.172-2.628-3.444-4.208c-4.412-5.472-5.828-7.108-6.712-7.42
				c-0.144-0.052-0.28,0.028-0.428,0.036l-11.404-15.72V19.451c0.912,0.456,1.976,0.852,3.172,1.176l1.636,0.332
				c0.568,0.092,1.176,0.144,1.852,0.156c0.2,0.008,0.4,0.012,0.596,0.012c2.28,0,4.66-0.512,6.92-1.496
				c1.916-0.888,3.84-2.204,5.728-3.916l1.084-0.976c1.12-1.016,2.18-1.976,3.224-2.752c1.328-1,2.7-1.816,4.068-2.42
				c1.128-0.468,2.372-0.904,3.792-0.904c2.408,0.008,5.42,0.916,8.068,2.432c2.424,1.376,3.98,3.02,4.852,4.148
				c0.432,0.576,0.72,1.068,0.936,1.472l0.296,0.652c0.256,0.596,0.948,0.876,1.552,0.616c0.456-0.208,0.744-0.68,0.704-1.18
				l-0.068-0.768c-0.084-0.564-0.22-1.328-0.52-2.256c-0.648-2.14-2.24-4.656-4.368-6.916c-2.192-2.248-5.328-5.004-10.192-6.32
				c-2.36-0.648-5.16-0.724-7.672-0.184c-2.248,0.448-4.548,1.22-6.836,2.284c-0.824,0.38-1.624,0.76-2.396,1.128
				c-1.16,0.556-2.252,1.08-3.268,1.512l-4.5,1.796c-1.124,0.488-2.152,0.9-3.088,1.248l-0.996,0.316l0.004,0.012
				c-0.02,0.004-0.036,0.008-0.056,0.016l-0.468,0.056l-0.144,0.036c-0.4,0.156-0.808,0.248-1.252,0.26
				c-0.784,0.064-1.76,0.108-2.656,0.06V0.871h-8.924v32.64l-8.644-6.668c-3.948-3.052-7.9-6.104-11.856-9.144
				c-1.336-1.024-3.088-2.096-4.728-1.468c-1.68,0.656-2.248,2.724-2.556,4.448c-0.936,5.252-1.82,10.52-2.704,15.784
				c-1.404,8.396-2.864,16.972-4.524,25.504c0-0.116,0.004-0.228,0.004-0.344c0.008-0.06,0.012-0.12,0.012-0.184l0.008-6.08
				c0.016-6.092,0.032-12.184-0.084-18.272c-0.036-1.564-0.832-3.752-2.288-4.904c-8.876-7.012-18-14.004-26.828-20.764
				l-1.244-0.948c-1.64-1.256-3.12-1.62-4.396-1.088c-1.276,0.536-2.064,1.852-2.324,3.916c-2.908,22.824-7.344,46.572-13.196,70.58
				c-11.508,47.26-25.268,84.8-43.304,118.144c-0.54,0.996-0.52,2.124-0.504,3.116c0.008,0.36,0.016,0.72-0.012,1.064
				c-0.032,0.396,0.104,0.78,0.372,1.076c0.5,0.544,1.332,0.456,2.104,0.532c0.432,0.044,0.896,0.088,1.36,0.088
				c0.604,0,1.22-0.08,1.808-0.332c13.848-6.024,28.112-10.88,42.42-14.524c-1.688,3.1-3.352,6.216-5.116,9.252
				c-0.58,1-0.536,2.156-0.5,3.18c0.016,0.36,0.032,0.724,0.008,1.068c-0.028,0.396,0.112,0.78,0.38,1.068
				c0.268,0.284,0.532,0.492,1.04,0.444c0.32-0.016,0.704,0.028,1.072,0.064c0.404,0.036,0.832,0.076,1.268,0.076
				c0.616,0,1.248-0.08,1.852-0.344c25.768-11.324,53.048-19.952,81.092-25.68v11.036c-0.244,0.08-0.488,0.16-0.732,0.24
				c-11.412,3.824-22.816,7.644-34.272,11.324c-22.744,7.292-43.38,11.344-63.084,12.376c-5.4,0.276-10.748,0.212-16.416,0.132
				c-2.6-0.036-5.236-0.072-7.912-0.072c-0.72,0-1.324,0.54-1.408,1.252c-0.916,7.804,1.14,14.144,6.096,18.9
				c-5.048-0.832-8.916-3.804-8.916-7.256c0-0.78-0.636-1.416-1.416-1.416c-0.78,0-1.416,0.636-1.416,1.416
				c0,4.072-5.368,7.508-11.724,7.508s-11.724-3.436-11.724-7.508c0-0.78-0.636-1.416-1.416-1.416c-0.78,0-1.416,0.636-1.416,1.416
				c0,5.704,6.532,10.344,14.56,10.344c5.816,0,10.812-2.452,13.14-5.968c2.328,3.512,7.324,5.968,13.14,5.968
				c6.024,0,11.204-2.616,13.416-6.328c2.212,3.716,7.392,6.328,13.416,6.328c5.816,0,10.812-2.452,13.14-5.968
				c2.328,3.512,7.324,5.968,13.14,5.968c5.692,0,10.58-2.356,12.972-5.748c2.392,3.392,7.28,5.748,12.972,5.748
				c5.816,0,10.812-2.452,13.14-5.968c2.328,3.512,7.324,5.968,13.14,5.968c5.708,0,10.612-2.368,12.996-5.776
				c2.384,3.408,7.288,5.776,12.996,5.776c5.816,0,10.812-2.452,13.14-5.968c2.328,3.512,7.324,5.968,13.14,5.968
				c6.024,0,11.204-2.612,13.416-6.324c2.212,3.712,7.392,6.324,13.416,6.324c8.028,0,14.56-4.64,14.56-10.344
				c0-0.78-0.636-1.416-1.416-1.416c-0.78,0-1.416,0.636-1.416,1.416c0,4.072-5.368,7.508-11.724,7.508
				c-6.356,0-11.724-3.436-11.724-7.508c0-0.78-0.636-1.416-1.416-1.416c-0.096,0-0.18,0.036-0.272,0.056
				c-0.092-0.02-0.176-0.056-0.272-0.056c-0.78,0-1.416,0.636-1.416,1.416c0,4.072-5.368,7.508-11.724,7.508
				c-1.476,0-2.888-0.2-4.204-0.536c1.204-14.532,6.048-27.068,14.284-37.56c0.068-0.012,0.136-0.028,0.204-0.044
				c-0.02-0.056-0.012-0.116-0.032-0.172c3.868-4.884,8.404-9.368,13.78-13.324c1.04-0.76,2.38-1.392,3.876-1.816
				c11.804-3.348,23.632-6.616,35.46-9.872C270.377,173.063,270.401,170.199,270.021,168.603z M168.833,10.235h0.004
				c0.956,0.032,1.936-0.02,2.712-0.084c0.524-0.02,1.036-0.124,1.528-0.312l0.64-0.084l0.608,0.04l0.02-0.264l0.416-0.136
				c0.98-0.364,2.024-0.78,3.156-1.268l4.496-1.792c1.04-0.444,2.152-0.976,3.324-1.54c0.764-0.364,1.564-0.748,2.384-1.12
				c2.212-1.032,4.424-1.772,6.588-2.208c2.36-0.496,4.956-0.436,7.14,0.168c4.6,1.248,7.588,3.872,9.672,6.012
				c2.008,2.124,3.504,4.48,4.104,6.464c0.276,0.864,0.404,1.572,0.472,2.056l-0.016,0.74l-0.312-0.696
				c-0.164-0.304-0.508-0.932-1.056-1.66c-0.94-1.22-2.604-2.98-5.196-4.444c-2.844-1.632-5.988-2.576-8.624-2.584
				c-1.616,0-2.988,0.472-4.244,0.992c-1.456,0.644-2.904,1.504-4.296,2.56c-1.084,0.808-2.164,1.784-3.304,2.82l-1.084,0.976
				c-1.8,1.632-3.632,2.888-5.428,3.72c-2.292,1-4.752,1.5-7.02,1.388c-0.632-0.012-1.192-0.06-1.708-0.14l-1.524-0.308
				c-1.16-0.312-2.188-0.692-3.052-1.132c-0.128-0.068-0.24-0.14-0.344-0.216c-0.02-0.012-0.036-0.024-0.056-0.036V10.235z
				 M90.561,13.651c0.156-1.22,0.488-1.612,0.604-1.66c0.112-0.048,0.62-0.012,1.58,0.724l1.244,0.948
				c8.82,6.756,17.936,13.744,26.792,20.744c0.612,0.484,1.192,1.788,1.212,2.736c0.052,2.64,0.028,5.284,0.04,7.928l-33.996-13.76
				C88.973,25.371,89.817,19.479,90.561,13.651z M87.837,32.455l34.2,13.844c0.008,3.016,0.052,6.032,0.044,9.052l-0.012,5.904
				c-0.008,0.06-0.012,0.12-0.012,0.184c0,1.64-0.028,3.284-0.06,4.924c-0.052,2.972-0.064,6.024,0.064,9.068
				c-0.148,0.644-0.316,1.256-0.468,1.896l-41.084-4.876c-0.196-0.04-0.352,0.056-0.468,0.2
				C83.089,59.091,85.721,45.651,87.837,32.455z M77.309,84.543c0.928-3.82,1.764-7.616,2.62-11.42
				c0.052,0.224,0.2,0.42,0.444,0.448l40.944,4.86c-2.608,11.072-5.436,21.824-8.548,32.188l-41.544-2.804
				C73.325,100.311,75.353,92.579,77.309,84.543z M70.937,108.863c0.06,0.028,0.1,0.08,0.168,0.084l41.308,2.788
				c-4.024,13.292-8.52,25.98-13.42,38.216l-42.92,4.332C61.449,140.139,66.373,125.091,70.937,108.863z M35.245,204.959
				c-0.348,0.156-1.012,0.096-1.664,0.032c-0.012-0.648-0.016-1.3,0.16-1.624c8.116-15,15.364-30.848,21.936-48.016
				c0.076,0.036,0.14,0.088,0.228,0.088c0.02,0,0.04,0,0.06-0.004l42.556-4.296c-5.396,13.352-11.288,26.16-17.792,38.404
				c-0.224,0.072-0.424,0.156-0.676,0.22C64.945,193.491,49.865,198.603,35.245,204.959z M159.333,179.363
				c-28.24,5.772-55.712,14.472-81.668,25.88c-0.356,0.152-1.012,0.1-1.664,0.048c-0.024-0.592-0.044-1.3,0.12-1.58
				c8.148-14.036,15.492-28.748,22.088-44.256l61.124-5.76V179.363z M159.333,152.559l-60.648,5.716
				c5.416-12.832,10.28-26.264,14.696-40.264l45.952,2.9V152.559z M159.333,119.775l-45.596-2.876
				c3.076-9.836,5.912-19.984,8.524-30.452l37.072,4.108V119.775z M159.333,89.419l-36.8-4.08c0.792-3.204,1.62-6.356,2.368-9.62
				c1.936-8.432,3.54-17.012,5.028-25.532l29.3,11.068c0.036,0.012,0.068,0.012,0.104,0.02V89.419z M159.333,60.087l-29.204-11.032
				c0.708-4.072,1.396-8.124,2.068-12.128c0.88-5.252,1.764-10.512,2.696-15.752c0.36-2.032,0.796-2.304,0.792-2.304
				c-0.008,0.004,0.484-0.084,1.988,1.076c3.96,3.04,7.908,6.088,11.856,9.14l8.94,6.9c0.268,0.208,0.548,0.404,0.864,0.612V60.087z
				 M185.597,79.511c1.288,1.6,2.54,3.148,3.492,4.26c18.924,22.076,53.26,63.56,60.336,72.544
				c-2.824-0.516-7.66-1.516-11.788-2.372c-3.744-0.776-7.424-1.54-9.952-2.02c-3.908-0.748-9.364-1.004-15.104-1.004
				c-11.072,0-23.192,0.968-27.284,1.328c0.576-4.828,2.492-20.96,3.272-27.988c0.008-0.072,0.012-0.14,0.004-0.212
				c-0.772-10.26-3.56-28.192-5.404-40.056c-0.544-3.492-1.068-6.872-1.408-9.16C182.961,76.243,184.445,78.087,185.597,79.511z
				 M168.821,56.907l10.468,14.428c-0.024,0.06-0.104,0.092-0.116,0.156c-0.124,0.564,0.088,2.124,1.752,12.856
				c1.832,11.784,4.596,29.58,5.38,39.768c-0.936,8.38-3.428,29.248-3.428,29.252c-0.028,0.208,0.024,0.408,0.112,0.596
				l-14.168,20.332V56.907z M168.821,176.283l15.1-21.676c0.064,0.004,0.12,0.028,0.184,0.024c0.304-0.032,30.612-2.864,43.156-0.48
				c2.516,0.48,6.188,1.24,9.916,2.012c9.856,2.044,13.504,2.756,14.588,2.756c0.084,0,0.148-0.004,0.2-0.012
				c0.152-0.02,0.248-0.148,0.376-0.224l10.8,7.148l-2.04,0.404c-23.356,4.6-47.508,9.364-70.636,16.832
				c-7.232,2.336-14.436,4.76-21.644,7.168V176.283z M162.161,180.523V35.827V3.131h4.396v187.852
				c-1.464,0.488-2.932,0.964-4.396,1.456V180.523z M160.065,196.127c8.508-2.86,17.028-5.68,25.552-8.468
				c-4.492,3.72-8.592,7.888-12.124,12.52c-1.82,2.38-3.96,4.884-6.58,4.884c-0.172,0-0.344-0.012-0.516-0.032
				c-1.612-0.204-3.1-1.416-4.424-3.6c-0.984-1.632-1.728-3.38-2.26-5.188C159.829,196.203,159.949,196.167,160.065,196.127z
				 M125.757,207.455c5.62-1.804,11.212-3.7,16.812-5.552c1.632,6.288,3.22,13.56,3.364,17.576c0.052,1.336,0.052,2.86-0.58,4.036
				c-0.716,1.352-1.9,1.704-2.764,1.764c-0.1,0.004-0.208,0.008-0.308,0.008c-1.86,0-3.936-1.108-5.144-2.776
				c-1.076-1.488-1.82-3.284-2.544-5.028c-0.74-1.776-1.5-3.612-2.628-5.184c-1.792-2.5-4.204-3.896-6.756-4.676
				C125.393,207.563,125.573,207.515,125.757,207.455z M119.993,209.223c-0.004,0.004-0.004,0.008-0.008,0.012
				c1.032,1.016,2.024,2.076,2.932,3.224c0.616,0.772,0.872,1.376,0.756,1.78c-0.056,0.204-0.156,0.26-0.24,0.308
				c-0.38,0.156-1.196-0.052-2.072-0.54c-2.612-1.448-5.444-2.324-8.36-2.764C115.313,210.599,117.641,209.931,119.993,209.223z
				 M93.037,216.015c-0.42,0.272-0.844,0.54-1.264,0.816c-2.18,1.424-4.428,2.904-6.828,3.836c-2.044,0.796-5.976,1.816-9.336-0.272
				c-0.644-0.4-1.196-0.892-1.692-1.448C80.173,218.255,86.529,217.299,93.037,216.015z M46.993,237.467
				c-0.252-0.132-0.54-0.232-0.76-0.392c-3.892-2.864-6.228-6.476-7.112-10.892c2.364,0.432,4.712,0.956,7.008,1.648
				c0.704,0.212,1.408,0.436,2.108,0.66c2.328,0.744,4.736,1.508,7.236,1.808c0.344,0.044,0.748,0.076,1.176,0.096
				C56.421,233.891,52.273,236.851,46.993,237.467z M59.793,229.279c-0.26-0.356-0.656-0.604-1.128-0.604
				c-0.096,0-0.184,0.036-0.276,0.056c-0.092-0.02-0.176-0.056-0.276-0.056c-0.544,0-1.008,0.32-1.244,0.772
				c-0.432-0.016-0.848,0-1.292-0.052c-2.416-0.292-4.78-1.048-7.068-1.772c-0.712-0.228-1.416-0.452-2.124-0.664
				c-2.448-0.74-4.948-1.296-7.472-1.744c-0.232-1.616-0.284-3.344-0.148-5.18c2.224,0.008,4.416,0.036,6.588,0.068
				c5.716,0.08,11.104,0.152,16.596-0.14c1.752-0.092,3.524-0.236,5.292-0.376c0.276,2.868-0.456,5.836-2.84,7.784
				C63.197,228.355,61.589,228.975,59.793,229.279z M71.809,237.603c-3.512,0-6.684-1.072-8.852-2.696
				c1.54-0.02,3.1-0.108,4.552-0.264c5.248-0.552,10.34-1.24,15.272-2.028C81.117,235.483,76.789,237.603,71.809,237.603z
				 M98.093,237.603c-2.06,0-3.988-0.388-5.688-1.016c5.628-1.14,11.168-2.372,16.556-3.772
				C107.213,235.583,102.953,237.603,98.093,237.603z M112.697,231.867c2.324-0.58,4.72-1.06,7.26-1.072h0.06
				c2.796,0,5.184,0.848,5.588,1.612c0.06,0.108,0.088,0.236-0.048,0.432c-0.376,0.552-1.62,1.08-2.364,1.396
				c-1.392,0.588-3.484,1.232-5.972,1.896C115.017,235.099,113.381,233.595,112.697,231.867z M124.033,237.603
				c-1.944,0-3.764-0.352-5.4-0.912c2.02-0.564,3.716-1.108,4.912-1.616c1.18-0.5,2.272-1.008,2.76-1.716
				c0.3-0.436,0.336-0.924,0.096-1.376c-0.724-1.364-3.82-2.092-6.396-2.092h-0.064c-2.62,0.012-5.064,0.496-7.424,1.084
				c0.036-0.296,0.124-0.58,0.124-0.88c0-0.78-0.636-1.416-1.416-1.416c-0.06,0-0.112,0.028-0.168,0.032
				c-0.056-0.008-0.108-0.032-0.168-0.032c-0.78,0-1.416,0.636-1.416,1.416c0,0.376,0.1,0.732,0.156,1.1
				c-0.044,0.188-0.08,0.376-0.148,0.56c-6.008,1.58-12.224,2.948-18.532,4.208c-2-1.012-3.492-2.412-4.16-4.02
				c2.436-0.428,4.836-0.88,7.168-1.364c1.212-0.252,2.416-0.516,3.62-0.776c4.58-0.992,9.312-2.02,14.604-2.58
				c6.44-0.676,14.68-0.5,17.964,1.16c1.2,0.6,1.464,1.276,1.572,1.864c0.432,2.404-2.168,5.008-6.868,7.3
				C124.577,237.559,124.313,237.603,124.033,237.603z M150.321,237.607c-6.36-0.004-11.724-3.444-11.724-7.512
				c0-0.78-0.636-1.416-1.416-1.416s-1.416,0.636-1.416,1.416c0,3.32-3.596,6.188-8.364,7.14c3.752-2.224,5.66-4.692,5.216-7.148
				c-0.196-1.108-0.848-1.912-2.056-2.516c-3.44-1.732-11.888-1.948-18.464-1.248c-5.34,0.56-10.1,1.588-14.704,2.588
				c-1.204,0.26-2.408,0.524-3.616,0.772c-2.356,0.492-4.78,0.944-7.244,1.38c-0.068-0.324-0.16-0.64-0.16-0.972
				c0-0.78-0.636-1.416-1.416-1.416c-0.78,0-1.416,0.636-1.416,1.416c0,0.516-0.088,1.024-0.256,1.516
				c-5.112,0.832-10.4,1.556-15.864,2.136c-1.768,0.184-3.7,0.3-5.52,0.256c-1.096-1.12-1.76-2.416-1.792-3.8
				c1.648-0.288,3.384-0.904,4.876-2.124c2.64-2.156,3.456-5.42,3.164-8.552c1.576-0.132,3.16-0.296,4.748-0.464
				c0.636,0.812,1.348,1.556,2.24,2.108c3.7,2.284,7.94,1.2,10.14,0.344c2.488-0.968,4.78-2.468,6.996-3.92
				c0.664-0.432,1.324-0.868,1.992-1.288c0.508-0.32,1.048-0.58,1.568-0.88c4.86-1.016,9.8-2.188,14.84-3.536
				c3.596,0.228,7.084,1.156,10.256,2.912c0.68,0.38,1.96,0.96,2.856,0.584c0.032-0.012,0.064-0.028,0.096-0.044
				c0.328-0.168,0.56-0.46,0.668-0.848c0.264-0.952-0.396-1.932-0.916-2.592c-0.832-1.056-1.76-2.016-2.7-2.96
				c0.896-0.272,1.792-0.544,2.696-0.828c2.876,0.612,5.64,1.98,7.608,4.72c1.068,1.48,1.808,3.268,2.528,5
				c0.74,1.788,1.508,3.636,2.644,5.212c1.372,1.896,3.748,3.156,5.888,3.156c0.12,0,0.244-0.008,0.364-0.016
				c1.552-0.104,2.792-0.904,3.504-2.24c0.736-1.38,0.74-3.044,0.684-4.496c-0.152-4.088-1.76-11.468-3.412-17.828
				c3.56-1.18,7.128-2.34,10.684-3.528c0.424,1.308,0.84,2.62,1.212,3.944c1.404,5.016,2.668,10.112,3.76,15.152
				c0.92,4.236,1.692,9.056-0.872,12.7c-0.92,1.312-2.264,2.428-3.568,3.516c-1.508,1.252-3.016,2.556-3.92,4.176
				C150.593,237.583,150.461,237.607,150.321,237.607z M196.533,229.363c-6.248-1.476-11.54-3.86-15.128-7.08
				c-0.548-0.484-2.44-1.996-3.98-1.08c-0.724,0.436-0.924,1.204-0.6,2.276c0.884,2.908,3.368,9.164,6.456,12.044
				c0.084,0.084,0.2,0.12,0.308,0.12c0.12,0,0.244-0.048,0.332-0.144c0.172-0.184,0.16-0.468-0.024-0.64
				c-2.732-2.548-5.208-8.36-6.208-11.644c-0.248-0.828-0.04-1.084,0.204-1.232c0.784-0.484,2.068,0.224,2.908,0.972
				c3.712,3.332,9.18,5.792,15.62,7.3c-0.308,1.904-0.572,3.836-0.752,5.812c-2.88-1.38-4.8-3.556-4.8-5.972
				c0-0.78-0.636-1.416-1.416-1.416c-0.78,0-1.416,0.636-1.416,1.416c0,4.072-5.368,7.508-11.724,7.508
				c-0.204,0-0.392-0.032-0.592-0.04c-1.736-5.912-3.552-17.88-3.612-23.852c-0.016-1.28,0.024-2.744,0.648-3.856
				c0.716-1.272,1.852-1.584,2.676-1.616c0.06-0.004,0.12-0.004,0.18-0.004c1.796,0,3.8,1.12,4.928,2.78
				c0.988,1.452,1.656,3.2,2.3,4.888c0.66,1.724,1.344,3.508,2.384,5.044c2.908,4.304,7.66,5.512,11.912,5.6
				C196.937,227.487,196.701,228.403,196.533,229.363z M209.145,199.375c-1.968,0.416-3.992,0.744-6.104,0.744
				c-0.14,0-0.28,0-0.42-0.004c-2.816-0.06-5.216-0.968-5.604-1.752c-0.056-0.108-0.084-0.24,0.06-0.436
				c0.364-0.5,1.428-0.952,2.404-1.336c4.796-1.892,10.296-3.476,16.16-4.736C213.285,194.243,211.093,196.735,209.145,199.375z
				 M216.805,190.679c-6.424,1.316-12.452,3.012-17.664,5.068c-1.136,0.448-2.292,0.948-2.8,1.648
				c-0.312,0.428-0.36,0.916-0.136,1.372c0.696,1.396,3.816,2.204,6.404,2.252c0.144,0.004,0.292,0.004,0.44,0.004
				c1.812,0,3.548-0.232,5.236-0.548c-0.78,1.1-1.436,2.272-2.144,3.416c-0.056,0.008-0.104,0.02-0.16,0.024
				c-4.904,0.496-11.472,0.096-13.956-1.604c-0.916-0.624-1.108-1.32-1.18-1.916c-0.444-3.752,4.364-7.656,12.56-10.18
				c4.152-1.28,11.352-3.104,18.776-4.272C220.293,187.459,218.493,189.035,216.805,190.679z M265.209,171.543
				c-11.836,3.252-23.672,6.532-35.484,9.88c-1.268,0.36-3.128,1.044-4.78,2.26c-0.5,0.368-0.928,0.78-1.416,1.156
				c-8,1.152-15.936,3.132-20.388,4.504c-8.64,2.66-13.696,6.936-13.192,11.152c0.08,0.696,0.328,1.716,1.564,2.564
				c2.008,1.372,6.212,1.964,10.372,1.964c1.252,0,2.476-0.076,3.66-0.176c-1.2,2.008-2.288,4.084-3.276,6.212
				c-1.556,0-3.112,0-4.76-0.12c-5.288-0.392-10.264-3.58-12.108-7.748c-1.632-3.692-0.776-7.836,2.472-11.98
				c0.156-0.2,0.12-0.484-0.076-0.636c-0.204-0.156-0.48-0.12-0.636,0.076c-4.388,5.592-3.828,10.108-2.588,12.912
				c1.968,4.46,7.26,7.868,12.868,8.284c1.528,0.112,2.96,0.104,4.404,0.108c-1.932,4.316-3.416,8.888-4.492,13.692
				c-4.072-0.052-8.628-1.148-11.372-5.208c-0.98-1.448-1.64-3.184-2.284-4.86c-0.664-1.74-1.352-3.532-2.4-5.072
				c-1.288-1.9-3.6-3.18-5.684-3.18c-0.076,0-0.144,0-0.216,0.004c-1.492,0.064-2.712,0.8-3.424,2.08
				c-0.74,1.308-0.78,2.912-0.764,4.308c0.06,5.94,1.836,17.712,3.568,23.78c-5.16-0.46-9.332-3.148-10.02-6.456
				c0.04-0.316,0.136-0.624,0.136-0.948c0-0.78-0.636-1.416-1.416-1.416c-0.052,0-0.096,0.024-0.144,0.028
				c-0.048-0.004-0.092-0.028-0.144-0.028c-0.78,0-1.416,0.636-1.416,1.416c0,0.324,0.092,0.632,0.136,0.948
				c-0.692,3.312-4.864,5.996-10.024,6.456c0.84-1.232,2.052-2.308,3.372-3.404c1.344-1.12,2.74-2.28,3.728-3.688
				c2.64-3.756,2.048-8.672,1.012-13.416c-1.092-5.056-2.364-10.168-3.768-15.2c-0.376-1.336-0.792-2.664-1.224-3.988
				c1.292-0.432,2.588-0.848,3.876-1.28c0.552,1.872,1.324,3.684,2.344,5.372c1.472,2.432,3.184,3.792,5.084,4.032
				c0.224,0.028,0.436,0.044,0.648,0.044c3.012,0,5.328-2.688,7.28-5.248c4.004-5.24,8.756-9.864,13.984-13.92
				c1.052-0.344,2.096-0.704,3.144-1.044c22.96-7.416,47.032-12.16,70.308-16.748l2.832-0.56c2.452-0.488,2.624,0.132,2.78,0.796
				C267.433,169.971,267.645,170.871,265.209,171.543z"/>
			<path d="M55.397,252.899c-0.312,0-0.568,0.252-0.568,0.568c0,2.148-2.696,3.9-6.004,3.9c-3.308,0-6.004-1.752-6.004-3.9
				c0-0.312-0.252-0.568-0.568-0.568s-0.568,0.252-0.568,0.568c0,2.148-2.696,3.9-6.004,3.9c-3.308,0-6-1.752-6-3.9
				c0-0.312-0.252-0.568-0.568-0.568s-0.568,0.252-0.568,0.568c0,2.772,3.204,5.032,7.136,5.032c2.948,0,5.484-1.268,6.572-3.068
				c1.088,1.804,3.624,3.068,6.572,3.068c3.932,0,7.136-2.256,7.136-5.032C55.961,253.151,55.709,252.899,55.397,252.899z"/>
			<path d="M93.329,267.499c-0.312,0-0.568,0.252-0.568,0.568c0,2.148-2.696,3.9-6.004,3.9c-3.308,0-6.004-1.752-6.004-3.9
				c0-0.312-0.252-0.568-0.568-0.568s-0.568,0.252-0.568,0.568c0,2.148-2.696,3.9-6.004,3.9c-3.308,0-6.004-1.752-6.004-3.9
				c0-0.312-0.252-0.568-0.568-0.568s-0.56,0.256-0.56,0.568c0,2.772,3.204,5.032,7.136,5.032c2.948,0,5.484-1.268,6.572-3.068
				c1.088,1.804,3.624,3.068,6.572,3.068c3.932,0,7.136-2.256,7.136-5.032C93.897,267.755,93.641,267.499,93.329,267.499z"/>
			<path d="M131.749,250.663c-0.312,0-0.568,0.252-0.568,0.568c0,2.148-2.696,3.9-6.004,3.9c-3.308,0-6.004-1.752-6.004-3.9
				c0-0.312-0.252-0.568-0.568-0.568s-0.568,0.252-0.568,0.568c0,2.148-2.696,3.9-6.004,3.9c-3.308,0-6.004-1.752-6.004-3.9
				c0-0.312-0.252-0.568-0.568-0.568s-0.568,0.252-0.568,0.568c0,2.772,3.204,5.032,7.136,5.032c2.948,0,5.484-1.268,6.572-3.068
				c1.088,1.804,3.624,3.068,6.572,3.068c3.932,0,7.136-2.256,7.136-5.032C132.313,250.919,132.061,250.663,131.749,250.663z"/>
			<path d="M213.009,252.899c-0.312,0-0.568,0.252-0.568,0.568c0,2.148-2.696,3.9-6.004,3.9s-6.004-1.752-6.004-3.9
				c0-0.312-0.252-0.568-0.568-0.568s-0.568,0.252-0.568,0.568c0,2.148-2.696,3.9-6.004,3.9s-6.004-1.752-6.004-3.9
				c0-0.312-0.252-0.568-0.568-0.568s-0.568,0.252-0.568,0.568c0,2.772,3.204,5.032,7.136,5.032c2.948,0,5.484-1.268,6.572-3.068
				c1.088,1.804,3.624,3.068,6.572,3.068c3.932,0,7.136-2.256,7.136-5.032C213.577,253.151,213.321,252.899,213.009,252.899z"/>
			<path d="M170.161,268.711c-0.312,0-0.568,0.252-0.568,0.568c0,2.148-2.696,3.9-6.004,3.9s-6.004-1.752-6.004-3.9
				c0-0.312-0.252-0.568-0.568-0.568s-0.568,0.252-0.568,0.568c0,2.148-2.696,3.9-6.004,3.9s-6.004-1.752-6.004-3.9
				c0-0.312-0.252-0.568-0.568-0.568s-0.568,0.252-0.568,0.568c0,2.772,3.204,5.032,7.136,5.032c2.948,0,5.484-1.268,6.572-3.068
				c1.088,1.804,3.624,3.068,6.572,3.068c3.932,0,7.136-2.256,7.136-5.032C170.729,268.967,170.473,268.711,170.161,268.711z"/>
		</g>
	</g>
</g>
</svg>